<svg width="71" height="36" viewBox="0 0 71 36" fill="none" xmlns="http://www.w3.org/2000/svg">
<path d="M6.5 10.5V0H15.5V1.5H17V6H15.5V7.5H9.5V10.5H6.5ZM9.5 6H14V1.5H9.5V6ZM20 10.5V9H18.5V3H21.5V9H26V3H29V10.5H20ZM32 10.5V9H35V1.5H33.5V0H38V9H41V10.5H32ZM42.5 10.5V9H50V7.5H44V6H42.5V4.5H44V3H51.5V4.5H45.5V6H51.5V7.5H53V9H51.5V10.5H42.5ZM56 10.5V9H54.5V7.5H56V6H62V4.5H56V3H63.5V4.5H65V10.5H56ZM57.5 9H62V7.5H57.5V9ZM12.5 24V15H21.5V16.5H23V19.5H21.5V21H15.5V24H12.5ZM15.5 19.5H20V16.5H15.5V19.5ZM26 22.5V21H24.5V19.5H26V18H32V16.5H26V15H33.5V16.5H35V22.5H26ZM27.5 21H32V19.5H27.5V21ZM41 16.5H42.5V18H41V22.5H38V15H41V16.5ZM47 15V16.5H42.5V15H47ZM50 22.5V21H48.5V19.5H50V18H56V16.5H50V15H57.5V16.5H59V22.5H50ZM51.5 21H56V19.5H51.5V21ZM2 34.5V33H0.5V28.5H2V27H9.5V28.5H11V31.5H3.5V33H9.5V34.5H2ZM3.5 30H8V28.5H3.5V30ZM14 34.5V33H17V25.5H15.5V24H20V33H23V34.5H14ZM26 34.5V33H24.5V28.5H26V27H33.5V28.5H35V31.5H27.5V33H33.5V34.5H26ZM27.5 30H32V28.5H27.5V30ZM38 36V34.5H44V33H38V31.5H36.5V28.5H38V27H47V34.5H45.5V36H38ZM39.5 31.5H44V28.5H39.5V31.5ZM53 25.5V24H56V25.5H53ZM50 34.5V33H53V28.5H51.5V27H56V33H59V34.5H50ZM65 28.5H66.5V30H65V34.5H62V27H65V28.5ZM71 27V28.5H66.5V27H71Z" fill="#808080" fill-opacity="0.55"/>
</svg>
