<svg width="209" height="28" viewBox="0 0 209 28" fill="none" xmlns="http://www.w3.org/2000/svg">
<path d="M0 28V0H24V4H28V16H24V20H8V28H0ZM8 16H20V4H8V16ZM34.08 28V24H30.08V12H34.08V8H54.08V12H58.08V24H54.08V28H34.08ZM38.08 24H50.08V12H38.08V24ZM60.16 28V0H68.16V16H76.16V12H80.16V8H88.16V12H84.16V16H80.16V20H84.16V24H88.16V28H80.16V24H76.16V20H68.16V28H60.16ZM94.24 28V24H90.24V12H94.24V8H114.24V12H118.24V20H98.24V24H114.24V28H94.24ZM98.24 16H110.24V12H98.24V16ZM124.32 28V24H120.32V12H124.32V8H140.32V0H148.32V28H124.32ZM128.32 24H140.32V12H128.32V24ZM154.4 28V24H150.4V12H154.4V8H174.4V12H178.4V20H158.4V24H174.4V28H154.4ZM158.4 16H170.4V12H158.4V16ZM180.48 28V24H184.48V20H188.48V16H184.48V12H180.48V8H188.48V12H192.48V16H196.48V12H200.48V8H208.48V12H204.48V16H200.48V20H204.48V24H208.48V28H200.48V24H196.48V20H192.48V24H188.48V28H180.48Z" fill="#362E2E" fill-opacity="0.87"/>
</svg>
