<svg width="239" height="32" viewBox="0 0 239 32" fill="none" xmlns="http://www.w3.org/2000/svg">
<path d="M0 28V0H24V4H28V12H24V16H28V24H24V28H0ZM8 12H20V4H8V12ZM8 24H20V16H8V24ZM50.08 4H46.08V0H50.08V4ZM46.08 8H42.08V4H46.08V8ZM58.08 8V28H34.08V24H30.08V8H38.08V24H50.08V8H58.08ZM60.16 28V24H80.16V20H64.16V16H60.16V12H64.16V8H84.16V12H68.16V16H84.16V20H88.16V24H84.16V28H60.16ZM110.24 32V24H94.24V20H90.24V12H94.24V8H118.24V32H110.24ZM98.24 20H110.24V12H98.24V20ZM124.32 28V24H120.32V8H128.32V24H140.32V8H148.32V28H124.32ZM154.4 28V24H150.4V12H154.4V8H174.4V12H178.4V20H158.4V24H174.4V28H154.4ZM158.4 16H170.4V12H158.4V16ZM184.48 28V24H180.48V12H184.48V8H200.48V0H208.48V28H184.48ZM188.48 24H200.48V12H188.48V24ZM214.56 28V24H210.56V20H214.56V16H230.56V12H214.56V8H234.56V12H238.56V28H214.56ZM218.56 24H230.56V20H218.56V24Z" fill="#362E2E" fill-opacity="0.87"/>
</svg>
